<svg width="280" height="9" viewBox="0 0 280 9" fill="none" xmlns="http://www.w3.org/2000/svg">
<g clip-path="url(#clip0)">
<path d="M280 8.24767C277.809 8.24767 276.664 6.75496 275.739 5.5543C274.911 4.48344 274.303 3.70464 273.012 3.70464C271.697 3.70464 271.113 4.48344 270.285 5.5543C269.36 6.75496 268.216 8.24767 266.025 8.24767C263.833 8.24767 262.689 6.75496 261.763 5.5543C260.935 4.48344 260.327 3.70464 259.037 3.70464C257.746 3.70464 257.137 4.48344 256.309 5.5543C255.384 6.75496 254.24 8.24767 252.049 8.24767C249.857 8.24767 248.713 6.75496 247.788 5.5543C246.96 4.48344 246.351 3.70464 245.061 3.70464C243.746 3.70464 243.162 4.48344 242.334 5.5543C241.409 6.75496 240.265 8.24767 238.073 8.24767C235.882 8.24767 234.737 6.75496 233.812 5.5543C232.984 4.48344 232.375 3.70464 231.085 3.70464C229.771 3.70464 229.186 4.48344 228.358 5.5543C227.335 6.75496 226.191 8.24767 224 8.24767C221.809 8.24767 220.665 6.75496 219.739 5.5543C218.911 4.48344 218.303 3.70464 217.012 3.70464C215.697 3.70464 215.113 4.48344 214.285 5.5543C213.36 6.75496 212.215 8.24767 210.025 8.24767C207.833 8.24767 206.689 6.75496 205.763 5.5543C204.936 4.48344 204.327 3.70464 203.037 3.70464C201.722 3.70464 201.137 4.48344 200.309 5.5543C199.336 6.75496 198.191 8.24767 196 8.24767C193.809 8.24767 192.665 6.75496 191.739 5.5543C190.911 4.48344 190.303 3.70464 189.012 3.70464C187.697 3.70464 187.113 4.48344 186.285 5.5543C185.36 6.75496 184.215 8.24767 182.025 8.24767C179.833 8.24767 178.689 6.75496 177.763 5.5543C176.936 4.48344 176.327 3.70464 175.037 3.70464C173.746 3.70464 173.137 4.48344 172.309 5.5543C171.36 6.75496 170.191 8.24767 168 8.24767C165.809 8.24767 164.665 6.75496 163.739 5.5543C162.911 4.48344 162.303 3.70464 161.012 3.70464C159.697 3.70464 159.113 4.48344 158.285 5.5543C157.36 6.75496 156.215 8.24767 154.025 8.24767C151.833 8.24767 150.689 6.75496 149.763 5.5543C148.936 4.48344 148.327 3.70464 147.037 3.70464C145.722 3.70464 145.137 4.48344 144.309 5.5543C143.385 6.75496 142.24 8.24767 140.049 8.24767C137.857 8.24767 136.713 6.75496 135.788 5.5543C134.96 4.48344 134.351 3.70464 133.061 3.70464C131.771 3.70464 131.162 4.48344 130.334 5.5543C129.409 6.75496 128.264 8.24767 126.073 8.24767C123.882 8.24767 122.737 6.75496 121.812 5.5543C120.985 4.48344 120.376 3.70464 119.085 3.70464C117.771 3.70464 117.186 4.48344 116.358 5.5543C115.433 6.75496 114.289 8.24767 112.097 8.24767C109.906 8.24767 108.762 6.75496 107.837 5.5543C107.009 4.48344 106.4 3.70464 105.109 3.70464C103.795 3.70464 103.211 4.48344 102.383 5.5543C101.457 6.75496 100.313 8.24767 98.1216 8.24767C95.9306 8.24767 94.7861 6.75496 93.8612 5.5543C93.0326 4.48344 92.4245 3.70464 91.1339 3.70464C89.8187 3.70464 89.2351 4.48344 88.4074 5.5543C87.4817 6.75496 86.3374 8.24767 84.1461 8.24767C81.9548 8.24767 80.8104 6.75496 79.8852 5.5543C79.0574 4.48344 78.4487 3.70464 77.1583 3.70464C75.8678 3.70464 75.2591 4.48344 74.4313 5.5543C73.5061 6.75496 72.3617 8.24767 70.1704 8.24767C67.9791 8.24767 66.8348 6.75496 65.9096 5.5543C65.0817 4.48344 64.4731 3.70464 63.1826 3.70464C61.8678 3.70464 61.2835 4.48344 60.4557 5.5543C59.5305 6.75496 58.3861 8.24767 56.1948 8.24767C54.0035 8.24767 52.8591 6.75496 51.9339 5.5543C51.1061 4.48344 50.4974 3.70464 49.2069 3.70464C47.8922 3.70464 47.3078 4.48344 46.48 5.5543C45.5548 6.75496 44.4104 8.24767 42.2191 8.24767C40.0278 8.24767 38.8835 6.75496 37.9583 5.5543C37.1305 4.48344 36.5217 3.70464 35.2313 3.70464C33.9165 3.70464 33.3322 4.48344 32.5043 5.5543C31.36 6.75496 30.1913 8.24767 28 8.24767C25.8087 8.24767 24.6643 6.75496 23.7391 5.5543C22.9113 4.48344 22.3026 3.70464 21.0122 3.70464C19.6974 3.70464 19.1131 4.48344 18.2852 5.5543C17.36 6.75496 16.2157 8.24767 14.0243 8.24767C11.8331 8.24767 10.6887 6.75496 9.76351 5.5543C8.91126 4.48344 8.30261 3.70464 7.01217 3.70464C5.69739 3.70464 5.11304 4.48344 4.28522 5.5543C3.33565 6.75496 2.19131 8.24767 0 8.24767V5.32715C1.31478 5.32715 1.89913 4.54835 2.72695 3.47749C3.65217 2.27683 4.79652 0.784119 7.01217 0.784119C9.20351 0.784119 10.3478 2.27683 11.2731 3.47749C12.1009 4.54835 12.7095 5.32715 14 5.32715C15.3148 5.32715 15.8991 4.54835 16.7269 3.47749C17.6522 2.27683 18.8209 0.784119 21.0122 0.784119C23.2035 0.784119 24.3478 2.27683 25.2731 3.47749C26.1009 4.54835 26.7096 5.32715 28 5.32715C29.3148 5.32715 29.8991 4.54835 30.7269 3.47749C31.6522 2.27683 32.7965 0.784119 34.9878 0.784119C37.1791 0.784119 38.3235 2.27683 39.2486 3.47749C40.0765 4.54835 40.6852 5.32715 41.9757 5.32715C43.2904 5.32715 43.8748 4.54835 44.7026 3.47749C45.6278 2.27683 46.7722 0.784119 48.9635 0.784119C51.1548 0.784119 52.2991 2.27683 53.2243 3.47749C54.0522 4.54835 54.6609 5.32715 55.9513 5.32715C57.2661 5.32715 57.8504 4.54835 58.6783 3.47749C59.6035 2.27683 60.7478 0.784119 62.9391 0.784119C65.1304 0.784119 66.2748 2.27683 67.2 3.47749C68.0278 4.54835 68.6365 5.32715 69.9269 5.32715C71.2417 5.32715 71.8261 4.54835 72.6539 3.47749C73.5791 2.27683 74.7235 0.784119 76.9148 0.784119C79.1061 0.784119 80.2505 2.27683 81.1757 3.47749C82.0035 4.54835 82.6122 5.32715 83.9026 5.32715C85.2174 5.32715 85.8017 4.54835 86.6296 3.47749C87.5551 2.27683 88.6988 0.784119 90.8906 0.784119C93.0816 0.784119 94.2261 2.27683 95.151 3.47749C95.9788 4.54835 96.5878 5.32715 97.8784 5.32715C99.169 5.32715 99.7771 4.54835 100.605 3.47749C101.531 2.27683 102.675 0.784119 104.866 0.784119C107.057 0.784119 108.202 2.27683 109.127 3.47749C109.955 4.54835 110.563 5.32715 111.854 5.32715C113.169 5.32715 113.753 4.54835 114.581 3.47749C115.506 2.27683 116.651 0.784119 118.842 0.784119C121.033 0.784119 122.177 2.27683 123.103 3.47749C123.931 4.54835 124.539 5.32715 125.829 5.32715C127.144 5.32715 127.729 4.54835 128.557 3.47749C129.482 2.27683 130.626 0.784119 132.817 0.784119C135.009 0.784119 136.153 2.27683 137.078 3.47749C137.906 4.54835 138.515 5.32715 139.805 5.32715C141.12 5.32715 141.704 4.54835 142.532 3.47749C143.457 2.27683 144.602 0.784119 146.793 0.784119C148.984 0.784119 150.129 2.27683 151.054 3.47749C151.882 4.54835 152.491 5.32715 153.781 5.32715C155.096 5.32715 155.68 4.54835 156.508 3.47749C157.433 2.27683 158.577 0.784119 160.769 0.784119C162.96 0.784119 164.104 2.27683 165.029 3.47749C165.857 4.54835 166.466 5.32715 167.757 5.32715C169.071 5.32715 169.656 4.54835 170.483 3.47749C171.409 2.27683 172.553 0.784119 174.744 0.784119C176.935 0.784119 178.08 2.27683 179.005 3.47749C179.833 4.54835 180.442 5.32715 181.732 5.32715C183.047 5.32715 183.631 4.54835 184.459 3.47749C185.384 2.27683 186.529 0.784119 188.72 0.784119C190.911 0.784119 192.055 2.27683 192.981 3.47749C193.809 4.54835 194.417 5.32715 195.708 5.32715C197.023 5.32715 197.607 4.54835 198.435 3.47749C199.652 2.27683 200.797 0.784119 203.012 0.784119C205.203 0.784119 206.348 2.27683 207.273 3.47749C208.101 4.54835 208.709 5.32715 210 5.32715C211.291 5.32715 211.899 4.54835 212.727 3.47749C213.652 2.27683 214.797 0.784119 216.988 0.784119C219.179 0.784119 220.323 2.27683 221.249 3.47749C222.077 4.54835 222.685 5.32715 223.975 5.32715C225.266 5.32715 225.875 4.54835 226.703 3.47749C227.652 2.27683 228.797 0.784119 231.012 0.784119C233.228 0.784119 234.348 2.27683 235.273 3.47749C236.101 4.54835 236.709 5.32715 238 5.32715C239.291 5.32715 239.899 4.54835 240.727 3.47749C241.652 2.27683 242.797 0.784119 244.988 0.784119C247.179 0.784119 248.323 2.27683 249.249 3.47749C250.077 4.54835 250.685 5.32715 251.975 5.32715C253.291 5.32715 253.875 4.54835 254.703 3.47749C255.628 2.27683 256.772 0.784119 258.963 0.784119C261.155 0.784119 262.299 2.27683 263.224 3.47749C264.052 4.54835 264.661 5.32715 265.951 5.32715C267.242 5.32715 267.851 4.54835 268.678 3.47749C269.603 2.27683 270.748 0.784119 272.939 0.784119C275.131 0.784119 276.275 2.27683 277.2 3.47749C278.028 4.54835 278.637 5.32715 279.927 5.32715V8.24767H280Z" fill="#63D1BB" fill-opacity="0.35"/>
</g>
<defs>
<clipPath id="clip0">
<rect width="280" height="7.46355" fill="white" transform="translate(0 0.784119)"/>
</clipPath>
</defs>
</svg>
